<svg width="40" height="40" viewBox="0 0 40 40" fill="none" xmlns="http://www.w3.org/2000/svg">
<path fill-rule="evenodd" clip-rule="evenodd" d="M5 31.8395V17.6162H5.99477V31.8395C5.99477 31.9311 6.069 32.0053 6.16057 32.0053H33.3532C33.4448 32.0053 33.519 31.9311 33.519 31.8395V17.6162H34.5138V31.8395C34.5138 32.4805 33.9942 33.0001 33.3532 33.0001H6.16057C5.5196 33.0001 5 32.4805 5 31.8395Z" fill="white"/>
<path fill-rule="evenodd" clip-rule="evenodd" d="M5.9977 8.99477V14.3002H33.5197V8.99477H5.9977ZM5.66611 8C5.29985 8 5.00293 8.29692 5.00293 8.66318V14.6318C5.00293 14.9981 5.29985 15.295 5.66611 15.295H33.8513C34.2175 15.295 34.5145 14.9981 34.5145 14.6318V8.66318C34.5145 8.29692 34.2175 8 33.8513 8H5.66611Z" fill="white"/>
<path fill-rule="evenodd" clip-rule="evenodd" d="M9.31215 18.9425V28.365H18.2651V18.9425H9.31215ZM8.98056 17.9478C8.6143 17.9478 8.31738 18.2447 8.31738 18.6109V28.6966C8.31738 29.0629 8.6143 29.3598 8.98056 29.3598H18.5967C18.9629 29.3598 19.2599 29.0629 19.2599 28.6966V18.6109C19.2599 18.2447 18.9629 17.9478 18.5967 17.9478H8.98056Z" fill="white"/>
<path d="M9.31171 11.6476C9.31171 12.0138 9.0148 12.3107 8.64853 12.3107C8.28227 12.3107 7.98535 12.0138 7.98535 11.6476C7.98535 11.2813 8.28227 10.9844 8.64853 10.9844C9.0148 10.9844 9.31171 11.2813 9.31171 11.6476Z" fill="white"/>
<path d="M11.965 11.6476C11.965 12.0138 11.6681 12.3107 11.3019 12.3107C10.9356 12.3107 10.6387 12.0138 10.6387 11.6476C10.6387 11.2813 10.9356 10.9844 11.3019 10.9844C11.6681 10.9844 11.965 11.2813 11.965 11.6476Z" fill="white"/>
<path d="M14.6174 11.6476C14.6174 12.0138 14.3205 12.3107 13.9542 12.3107C13.5879 12.3107 13.291 12.0138 13.291 11.6476C13.291 11.2813 13.5879 10.9844 13.9542 10.9844C14.3205 10.9844 14.6174 11.2813 14.6174 11.6476Z" fill="white"/>
<path fill-rule="evenodd" clip-rule="evenodd" d="M31.5283 18.9425H21.249V17.9478H31.5283V18.9425Z" fill="white"/>
<path fill-rule="evenodd" clip-rule="evenodd" d="M31.5283 22.2584H21.249V21.2637H31.5283V22.2584Z" fill="white"/>
<path fill-rule="evenodd" clip-rule="evenodd" d="M31.5283 25.5744H21.249V24.5796H31.5283V25.5744Z" fill="white"/>
<path fill-rule="evenodd" clip-rule="evenodd" d="M31.5283 28.8903H21.249V27.8955H31.5283V28.8903Z" fill="white"/>
</svg>
