<svg width="40" height="40" viewBox="0 0 40 40" fill="none" xmlns="http://www.w3.org/2000/svg">
<rect x="3.46262" y="29.9835" width="3.50531" height="7.10957" rx="0.5" transform="rotate(-40.3813 3.46262 29.9835)" stroke="white"/>
<rect x="17.9079" y="9.41656" width="3.50531" height="19.7244" rx="0.5" transform="rotate(-40.3813 17.9079 9.41656)" stroke="white"/>
<path d="M10.3107 32.4727L6.71023 28.2393L18.5243 10.2941L29.9197 23.6925L10.3107 32.4727Z" stroke="white"/>
<rect x="27.7432" y="13.4072" width="8.10957" height="0.901063" rx="0.450532" transform="rotate(-40.3813 27.7432 13.4072)" fill="white"/>
<rect x="24.2168" y="9.39893" width="8.07054" height="0.901063" rx="0.450532" transform="rotate(-52.4563 24.2168 9.39893)" fill="white"/>
<rect x="11.0449" y="23.6846" width="5.12409" height="0.901063" rx="0.450532" transform="rotate(-57.2535 11.0449 23.6846)" fill="white"/>
<rect x="14.5293" y="17.9424" width="3.92204" height="0.901063" rx="0.450532" transform="rotate(-58.2173 14.5293 17.9424)" fill="white"/>
<path d="M31.4424 17.7334C31.3318 17.5105 31.4229 17.2402 31.6458 17.1296L38.1527 13.9022C38.3756 13.7917 38.646 13.8827 38.7565 14.1056C38.8671 14.3286 38.776 14.5989 38.5531 14.7095L32.0462 17.9369C31.8233 18.0474 31.5529 17.9564 31.4424 17.7334Z" fill="white"/>
<path d="M16.7441 29.8589L17.5707 29.5001L17.8901 30.2359C18.11 30.7425 18.6989 30.9749 19.2056 30.755L20.3546 30.2563L21.5037 29.7575C22.0103 29.5376 22.2428 28.9486 22.0228 28.442L21.7035 27.7062L22.53 27.3474L22.81 27.9925C23.2498 29.0057 22.785 30.1836 21.7717 30.6234L19.6551 31.5422C18.6419 31.982 17.4639 31.5172 17.0241 30.5039L16.7441 29.8589Z" fill="white"/>
</svg>
