<svg width="23" height="14" viewBox="0 0 23 14" fill="none" xmlns="http://www.w3.org/2000/svg">
<path d="M22.7864 12.5616C22.7864 12.4658 22.6948 12.4658 22.6948 12.3699C22.3288 11.6027 21.5052 10.6438 20.4071 9.58905C19.858 9.10959 19.5835 8.72603 19.4004 8.53425C19.1259 8.15068 19.1259 7.86302 19.2174 7.47946C19.3089 7.19179 19.675 6.71232 20.3155 5.84931C20.6816 5.36986 20.8646 5.08219 21.1391 4.79452C22.5118 2.87671 23.1524 1.63013 22.9694 1.05479L22.8779 0.958905C22.7864 0.863014 22.6948 0.767127 22.5118 0.767127C22.3288 0.671236 22.0543 0.671236 21.7797 0.767127H18.3023C18.2108 0.767127 18.2108 0.767127 18.0278 0.767127C17.9362 0.767127 17.8447 0.767127 17.8447 0.767127H17.7532H17.6617L17.5702 0.863008C17.4787 0.958899 17.4787 0.958896 17.4787 1.05479C17.1126 2.10958 16.6551 2.9726 16.1975 3.9315C15.923 4.41095 15.6485 4.89041 15.3739 5.27398C15.0994 5.65754 14.9164 5.9452 14.7333 6.13698C14.5503 6.32876 14.3673 6.42466 14.2758 6.61644C14.1843 6.71233 14.0013 6.80822 14.0013 6.71233C13.9097 6.71233 13.8182 6.71233 13.8182 6.61644C13.7267 6.52055 13.6352 6.42465 13.5437 6.32876C13.4522 6.23287 13.4522 6.04109 13.3607 5.84931C13.3607 5.65753 13.3607 5.46575 13.3607 5.36986C13.3607 5.27397 13.3607 4.9863 13.3607 4.79452C13.3607 4.50685 13.3607 4.31507 13.3607 4.21917C13.3607 3.9315 13.3607 3.54795 13.3607 3.16439C13.3607 2.78083 13.3607 2.49315 13.3607 2.30137C13.3607 2.10958 13.3607 1.82192 13.3607 1.63014C13.3607 1.34246 13.3607 1.15068 13.3607 1.05479C13.3607 0.958896 13.2692 0.767121 13.2692 0.67123C13.1777 0.57534 13.0861 0.479447 12.9946 0.383556C12.9031 0.287666 12.7201 0.287668 12.6286 0.191778C12.171 0.0958875 11.622 0 10.9814 0C9.51721 0 8.51057 0.0958934 8.14453 0.287674C7.96151 0.383565 7.77848 0.479449 7.68697 0.67123C7.50395 0.863011 7.50394 0.958905 7.59545 0.958905C8.05301 1.0548 8.41906 1.24657 8.60209 1.53424L8.6936 1.72603C8.78511 1.82192 8.7851 2.01369 8.87661 2.30137C8.96812 2.58904 8.96813 2.87671 8.96813 3.26027C8.96813 3.83561 8.96813 4.41096 8.96813 4.79452C8.96813 5.27398 8.87661 5.56164 8.87661 5.84931C8.87661 6.13698 8.78511 6.32877 8.6936 6.42466C8.60209 6.61644 8.60208 6.71233 8.51057 6.71233C8.51057 6.71233 8.51056 6.80821 8.41905 6.80821C8.32754 6.80821 8.23603 6.90411 8.05301 6.90411C7.9615 6.90411 7.77848 6.80822 7.68697 6.71233C7.50395 6.61644 7.32093 6.42466 7.22941 6.23288C7.04639 6.0411 6.86336 5.75342 6.68034 5.36986C6.49732 4.9863 6.22277 4.60274 6.03975 4.0274L5.85674 3.64384C5.76523 3.45206 5.58221 3.06849 5.39918 2.58904C5.21616 2.10959 5.03313 1.72603 4.85011 1.24658C4.7586 1.0548 4.6671 0.958899 4.57559 0.863008H4.48407C4.48407 0.863008 4.39255 0.767127 4.30104 0.767127C4.20952 0.767127 4.11802 0.67123 4.02651 0.67123H0.732095C0.366049 0.67123 0.183029 0.767118 0.091517 0.863008L0 0.958905C0 0.958905 0 1.05479 0 1.15068C0 1.24657 5.58405e-06 1.34246 0.091517 1.53424C0.549074 2.68492 1.09814 3.83562 1.64721 4.9863C2.19628 6.0411 2.74535 7 3.1114 7.67124C3.56896 8.34247 3.935 9.0137 4.39255 9.58905C4.85011 10.1644 5.12464 10.5479 5.21615 10.7397C5.39917 10.9315 5.49068 11.0274 5.58219 11.1233L5.85674 11.411C6.03976 11.6027 6.31429 11.8904 6.68034 12.1781C7.04639 12.4658 7.50394 12.7534 7.96149 13.0411C8.41905 13.3288 8.96813 13.5206 9.5172 13.7123C10.1578 13.9041 10.7068 14 11.2559 13.9041H12.6286C12.9031 13.9041 13.0862 13.8082 13.2692 13.6164L13.3607 13.5205C13.3607 13.4247 13.4522 13.4247 13.4522 13.3288C13.4522 13.2329 13.4522 13.137 13.4522 12.9452C13.4522 12.5617 13.4522 12.274 13.5437 11.9863C13.6352 11.6986 13.6352 11.5069 13.7267 11.3151C13.8182 11.1233 13.9097 11.0274 14.0013 10.9315C14.0928 10.8356 14.1843 10.7397 14.1843 10.7397H14.2758C14.4588 10.6438 14.7333 10.7397 14.9164 10.9315C15.1909 11.1233 15.4654 11.411 15.6485 11.6986C15.8315 11.9863 16.106 12.274 16.4721 12.6575C16.8381 13.0411 17.1127 13.3288 17.2957 13.4247L17.5702 13.6164C17.7532 13.7123 17.9363 13.8082 18.2108 13.9041C18.4853 14 18.6683 14 18.8514 14L21.9628 13.9041C22.2373 13.9041 22.5118 13.8082 22.6948 13.7123C22.8779 13.6164 22.9694 13.5205 22.9694 13.3288C22.9694 13.2329 22.9694 13.0411 22.9694 12.9452C22.7863 12.7534 22.7864 12.6575 22.7864 12.5616Z" fill="white"/>
</svg>
