<svg width="40" height="40" viewBox="0 0 40 40" fill="none" xmlns="http://www.w3.org/2000/svg">
<path fill-rule="evenodd" clip-rule="evenodd" d="M5 31.8363V17.6149H5.99464V31.8363C5.99464 31.9279 6.06886 32.0021 6.16042 32.0021H33.3496C33.4411 32.0021 33.5154 31.9279 33.5154 31.8363V17.6149H34.51V31.8363C34.51 32.4772 33.9905 32.9967 33.3496 32.9967H6.16042C5.51954 32.9967 5 32.4772 5 31.8363Z" fill="#F5F8FA"/>
<path fill-rule="evenodd" clip-rule="evenodd" d="M5.99757 8.99464V14.2994H33.516V8.99464H5.99757ZM5.66602 8C5.29981 8 5.00293 8.29688 5.00293 8.66309V14.631C5.00293 14.9972 5.29981 15.294 5.66602 15.294H33.8476C34.2138 15.294 34.5107 14.9972 34.5107 14.631V8.6631C34.5107 8.29688 34.2138 8 33.8476 8H5.66602Z" fill="#F5F8FA"/>
<path d="M9.31154 11.647C9.31154 12.0132 9.01466 12.3101 8.64845 12.3101C8.28223 12.3101 7.98535 12.0132 7.98535 11.647C7.98535 11.2808 8.28223 10.9839 8.64845 10.9839C9.01466 10.9839 9.31154 11.2808 9.31154 11.647Z" fill="#F5F8FA"/>
<path d="M11.9639 11.647C11.9639 12.0132 11.667 12.3101 11.3008 12.3101C10.9346 12.3101 10.6377 12.0132 10.6377 11.647C10.6377 11.2808 10.9346 10.9839 11.3008 10.9839C11.667 10.9839 11.9639 11.2808 11.9639 11.647Z" fill="#F5F8FA"/>
<path d="M14.6162 11.647C14.6162 12.0132 14.3194 12.3101 13.9531 12.3101C13.5869 12.3101 13.29 12.0132 13.29 11.647C13.29 11.2808 13.5869 10.9839 13.9531 10.9839C14.3194 10.9839 14.6162 11.2808 14.6162 11.647Z" fill="#F5F8FA"/>
<path fill-rule="evenodd" clip-rule="evenodd" d="M18.1983 27.135L19.9877 18.4437L20.9619 18.6443L19.1726 27.3356L18.1983 27.135Z" fill="#F5F8FA"/>
<path fill-rule="evenodd" clip-rule="evenodd" d="M14.1515 22.1662L16.7024 19.929L17.3583 20.6767L14.9494 22.7894L17.3583 24.902L16.7024 25.6498L14.1515 23.4125C13.775 23.0824 13.775 22.4964 14.1515 22.1662Z" fill="#F5F8FA"/>
<path fill-rule="evenodd" clip-rule="evenodd" d="M25.3602 22.1662L22.8093 19.929L22.1535 20.6767L24.5623 22.7894L22.1535 24.902L22.8093 25.6498L25.3602 23.4125C25.7367 23.0824 25.7367 22.4964 25.3602 22.1662Z" fill="#F5F8FA"/>
</svg>
