<svg width="22" height="16" viewBox="0 0 22 16" fill="none" xmlns="http://www.w3.org/2000/svg">
<path d="M22 6.14141C22 5.65656 21.9197 5.09091 21.9197 4.44444C21.8394 3.79798 21.7591 3.15151 21.6788 2.58586C21.5183 1.93939 21.2774 1.45455 20.7956 1.05051C20.3942 0.646467 19.8321 0.404035 19.2701 0.323227C17.4234 0.0808031 14.6934 0 11 0C7.30658 0 4.49635 0.0808031 2.72992 0.323227C2.16788 0.404035 1.60584 0.646467 1.20438 1.05051C0.80292 1.45455 0.481747 1.93939 0.321163 2.58586C0.160579 3.15151 0.0802969 3.71717 0.0802969 4.44444C4.89944e-06 5.09091 0 5.65656 0 6.14141C0 6.62625 0 7.19191 0 7.99999C0 8.80807 0 9.45454 0 9.85858C0 10.3434 0.0802969 10.9091 0.0802969 11.5556C0.160589 12.202 0.240871 12.8485 0.321163 13.4141C0.481747 14.0606 0.722628 14.5455 1.20438 14.9495C1.60584 15.3535 2.16788 15.596 2.72992 15.6768C4.57664 15.9192 7.30658 16 11 16C14.6934 16 17.5037 15.9192 19.2701 15.6768C19.8321 15.596 20.3942 15.3535 20.7956 14.9495C21.1971 14.5455 21.5183 14.0606 21.6788 13.4141C21.8394 12.8485 21.9197 12.2828 21.9197 11.5556C22 10.9091 22 10.3434 22 9.85858C22 9.37373 22 8.80807 22 7.99999C22 7.19191 22 6.54545 22 6.14141ZM15.2555 8.64646L8.91242 12.6061C8.83212 12.6869 8.67154 12.7677 8.51096 12.7677C8.35037 12.7677 8.27008 12.7677 8.1095 12.6869C7.86862 12.5252 7.70804 12.2828 7.70804 11.9596V3.95959C7.70804 3.63636 7.86862 3.39394 8.1095 3.23232C8.35037 3.07071 8.67154 3.07071 8.91242 3.23232L15.2555 7.19191C15.4964 7.35353 15.6569 7.59596 15.6569 7.83838C15.6569 8.0808 15.4964 8.48484 15.2555 8.64646Z" fill="white"/>
</svg>
